<?xml version="1.0" encoding="UTF-8" standalone="no" ?>
<!DOCTYPE svg PUBLIC "-//W3C//DTD SVG 1.1//EN" "http://www.w3.org/Graphics/SVG/1.1/DTD/svg11.dtd">
<svg xmlns="http://www.w3.org/2000/svg" xmlns:xlink="http://www.w3.org/1999/xlink" version="1.1" width="500" height="500" viewBox="0 0 500 500" xml:space="preserve">
<desc>Created with Fabric.js 4.6.0</desc>
<defs>
</defs>
<g transform="matrix(-1.55 0 0 1.55 250 253.72)" id="ciA3Zt5SFpNFrV5CsKSBj"  >
<path style="stroke: rgb(94,12,43); stroke-width: 0; stroke-dasharray: none; stroke-linecap: butt; stroke-dashoffset: 0; stroke-linejoin: miter; stroke-miterlimit: 4; fill: rgb(216,179,0); fill-rule: nonzero; opacity: 1;" vector-effect="non-scaling-stroke"  transform=" translate(0, 0)" d="M 0 -141.5 C 78.108 -141.5 141.5 -78.108 141.5 0 C 141.5 78.108 78.108 141.5 0 141.5 C -78.108 141.5 -141.5 78.108 -141.5 0 C -141.5 -78.108 -78.108 -141.5 0 -141.5 z" stroke-linecap="round" />
</g>
<g transform="matrix(-1.55 0 0 1.55 250 247.28)" id="vBa9iKcRwURM2V3FH-qIC"  >
<path style="stroke: rgb(216,179,0); stroke-width: 2; stroke-dasharray: none; stroke-linecap: butt; stroke-dashoffset: 0; stroke-linejoin: miter; stroke-miterlimit: 4; fill: rgb(254,223,72); fill-rule: nonzero; opacity: 1;" vector-effect="non-scaling-stroke"  transform=" translate(0, 0)" d="M 0 -141.5 C 78.108 -141.5 141.5 -78.108 141.5 0 C 141.5 78.108 78.108 141.5 0 141.5 C -78.108 141.5 -141.5 78.108 -141.5 0 C -141.5 -78.108 -78.108 -141.5 0 -141.5 z" stroke-linecap="round" />
</g>
<g transform="matrix(3.75 0 0 3.75 250 286.54)" id="U4vLtgMNbUR6qmndvGCZf"  >
<filter id="SVGID_519" y="-21%" height="142%" x="-20%" width="140%" >
	<feGaussianBlur in="SourceAlpha" stdDeviation="0"></feGaussianBlur>
	<feOffset dx="0" dy="0.5" result="oBlur" ></feOffset>
	<feFlood flood-color="rgb(182,182,182)" flood-opacity="1"/>
	<feComposite in2="oBlur" operator="in" />
	<feMerge>
		<feMergeNode></feMergeNode>
		<feMergeNode in="SourceGraphic"></feMergeNode>
	</feMerge>
</filter>
<path style="stroke: rgb(213,48,194); stroke-width: 0; stroke-dasharray: none; stroke-linecap: butt; stroke-dashoffset: 0; stroke-linejoin: miter; stroke-miterlimit: 4; fill: rgb(0,0,0); fill-rule: nonzero; opacity: 1;filter: url(#SVGID_519);" vector-effect="non-scaling-stroke"  transform=" translate(0, 0)" d="M 0 -32 C 17.664 -32 32 -17.664 32 0 C 32 17.664 17.664 32 0 32 C -17.664 32 -32 17.664 -32 0 C -32 -17.664 -17.664 -32 0 -32 z" stroke-linecap="round" />
</g>
<g transform="matrix(3.02 0 0 1.93 253.86 218.87)" id="m0UBijh0YUbr3hjqToMj3"  >
<path style="stroke: rgb(216,239,89); stroke-width: 0; stroke-dasharray: none; stroke-linecap: butt; stroke-dashoffset: 0; stroke-linejoin: miter; stroke-miterlimit: 4; fill: rgb(254,223,72); fill-rule: nonzero; opacity: 1;" vector-effect="non-scaling-stroke"  transform=" translate(0, 0)" d="M -44 -44 L 44 -44 L 44 44 L -44 44 z" stroke-linecap="round" />
</g>
<g transform="matrix(-1.71 0 0 1.97 327.04 182.98)" id="bhGTILzuNhPzKSu89ZMEj"  >
<filter id="SVGID_511" y="-22%" height="144%" x="-20%" width="140%" >
	<feGaussianBlur in="SourceAlpha" stdDeviation="0"></feGaussianBlur>
	<feOffset dx="0" dy="1" result="oBlur" ></feOffset>
	<feFlood flood-color="rgb(182,182,182)" flood-opacity="1"/>
	<feComposite in2="oBlur" operator="in" />
	<feMerge>
		<feMergeNode></feMergeNode>
		<feMergeNode in="SourceGraphic"></feMergeNode>
	</feMerge>
</filter>
<path style="stroke: rgb(97,97,97); stroke-width: 0; stroke-dasharray: none; stroke-linecap: butt; stroke-dashoffset: 0; stroke-linejoin: miter; stroke-miterlimit: 4; fill: rgb(255,255,255); fill-rule: nonzero; opacity: 1;filter: url(#SVGID_511);" vector-effect="non-scaling-stroke"  transform=" translate(0, 0)" d="M 0 -29 C 16.008 -29 29 -16.008 29 0 C 29 16.008 16.008 29 0 29 C -16.008 29 -29 16.008 -29 0 C -29 -16.008 -16.008 -29 0 -29 z" stroke-linecap="round" />
</g>
<g transform="matrix(1.71 0 0 1.97 172.89 182.98)" id="bFrG1IMMrIk8I3wt6hfuq"  >
<filter id="SVGID_515" y="-22%" height="144%" x="-20%" width="140%" >
	<feGaussianBlur in="SourceAlpha" stdDeviation="0"></feGaussianBlur>
	<feOffset dx="0" dy="1" result="oBlur" ></feOffset>
	<feFlood flood-color="rgb(182,182,182)" flood-opacity="1"/>
	<feComposite in2="oBlur" operator="in" />
	<feMerge>
		<feMergeNode></feMergeNode>
		<feMergeNode in="SourceGraphic"></feMergeNode>
	</feMerge>
</filter>
<path style="stroke: rgb(119,121,79); stroke-width: 0; stroke-dasharray: none; stroke-linecap: butt; stroke-dashoffset: 0; stroke-linejoin: miter; stroke-miterlimit: 4; fill: rgb(255,255,255); fill-rule: nonzero; opacity: 1;filter: url(#SVGID_515);" vector-effect="non-scaling-stroke"  transform=" translate(0, 0)" d="M 0 -29 C 16.008 -29 29 -16.008 29 0 C 29 16.008 16.008 29 0 29 C -16.008 29 -29 16.008 -29 0 C -29 -16.008 -16.008 -29 0 -29 z" stroke-linecap="round" />
</g>
<g transform="matrix(-2.16 0 0 2.16 315.68 210.51)" id="zgHjoc6FEuTaXU4cU5T5H"  >
<path style="stroke: rgb(104,106,184); stroke-width: 0; stroke-dasharray: none; stroke-linecap: butt; stroke-dashoffset: 0; stroke-linejoin: miter; stroke-miterlimit: 4; fill: rgb(0,0,0); fill-rule: nonzero; opacity: 1;" vector-effect="non-scaling-stroke"  transform=" translate(0, 0)" d="M 0 -11 C 6.072 -11 11 -6.072 11 0 C 11 6.072 6.072 11 0 11 C -6.072 11 -11 6.072 -11 0 C -11 -6.072 -6.072 -11 0 -11 z" stroke-linecap="round" />
</g>
<g transform="matrix(2.16 0 0 1.97 182.36 214.93)" id="cpTK3YHwOwxU6kGMy1vtF"  >
<path style="stroke: rgb(104,106,184); stroke-width: 0; stroke-dasharray: none; stroke-linecap: butt; stroke-dashoffset: 0; stroke-linejoin: miter; stroke-miterlimit: 4; fill: rgb(0,0,0); fill-rule: nonzero; opacity: 1;" vector-effect="non-scaling-stroke"  transform=" translate(0, 0)" d="M 0 -11 C 6.072 -11 11 -6.072 11 0 C 11 6.072 6.072 11 0 11 C -6.072 11 -11 6.072 -11 0 C -11 -6.072 -6.072 -11 0 -11 z" stroke-linecap="round" />
</g>
<g transform="matrix(2.9 0 0 0.91 250 394.73)" id="2Z87o9zuxE83MdnQaVYAd"  >
<path style="stroke: rgb(156,113,246); stroke-width: 0; stroke-dasharray: none; stroke-linecap: butt; stroke-dashoffset: 0; stroke-linejoin: miter; stroke-miterlimit: 4; fill: rgb(239,112,119); fill-rule: nonzero; opacity: 1;" vector-effect="non-scaling-stroke"  transform=" translate(0, 0)" d="M 0 -13 C 7.176 -13 13 -7.176 13 0 C 13 7.176 7.176 13 0 13 C -7.176 13 -13 7.176 -13 0 C -13 -7.176 -7.176 -13 0 -13 z" stroke-linecap="round" />
</g>
<g transform="matrix(4.07 0 0 0.4 253.86 312.84)" id="Ay-in7NZ-k-jTtvCywxK6"  >
<path style="stroke: rgb(133,0,159); stroke-width: 0; stroke-dasharray: none; stroke-linecap: butt; stroke-dashoffset: 0; stroke-linejoin: miter; stroke-miterlimit: 4; fill: rgb(255,255,255); fill-rule: nonzero; opacity: 1;" vector-effect="non-scaling-stroke"  transform=" translate(0, 0)" d="M -22.5 -22.5 L 22.5 -22.5 L 22.5 22.5 L -22.5 22.5 z" stroke-linecap="round" />
</g>
</svg>