<?xml version="1.0" encoding="UTF-8" standalone="no"?>
<svg
   id="svg8502"
   viewBox="0 0 456 212"
   version="1.1"
   sodipodi:docname="gnome-extension.svg"
   inkscape:version="1.2.2 (b0a8486541, 2022-12-01)"
   xmlns:inkscape="http://www.inkscape.org/namespaces/inkscape"
   xmlns:sodipodi="http://sodipodi.sourceforge.net/DTD/sodipodi-0.dtd"
   xmlns="http://www.w3.org/2000/svg"
   xmlns:svg="http://www.w3.org/2000/svg">
  <defs
     id="defs25" />
  <sodipodi:namedview
     id="namedview23"
     pagecolor="#ffffff"
     bordercolor="#000000"
     borderopacity="0.25"
     inkscape:showpageshadow="2"
     inkscape:pageopacity="0.0"
     inkscape:pagecheckerboard="0"
     inkscape:deskcolor="#d1d1d1"
     showgrid="false"
     inkscape:zoom="3.2916667"
     inkscape:cx="204.75949"
     inkscape:cy="106.17722"
     inkscape:window-width="2560"
     inkscape:window-height="1376"
     inkscape:window-x="0"
     inkscape:window-y="27"
     inkscape:window-maximized="1"
     inkscape:current-layer="svg8502" />
  <style
     id="style2">.st2{fill:#4a86cf}.st4{fill:#7b7979}</style>
  <path
     d="M 437.57764,197.62104 H 18.422352 c -7.075256,0 -12.8641004,-5.78885 -12.8641004,-12.86411 V 22.883661 c 0,-7.075255 5.7888444,-12.864099 12.8641004,-12.864099 H 437.57764 c 7.07526,0 12.86411,5.788844 12.86411,12.864099 V 184.75693 c 0,7.07526 -5.78885,12.86411 -12.86411,12.86411 z"
     fill="#ffffff"
     id="path4"
     style="stroke-width:1.072" />
  <path
     d="M 437.57764,197.62104 H 18.422352 c -7.075256,0 -12.8641004,-5.78885 -12.8641004,-12.86411 V 22.883661 c 0,-7.075255 5.7888444,-12.864099 12.8641004,-12.864099 H 437.57764 c 7.07526,0 12.86411,5.788844 12.86411,12.864099 V 184.75693 c 0,7.07526 -5.78885,12.86411 -12.86411,12.86411 z"
     fill="none"
     stroke="#a6a6a6"
     stroke-width="0.804006"
     id="path6" />
  <path
     class="st2"
     d="m 137.7369,36.390968 c -27.76502,0 -33.01787,39.664311 -17.36655,39.664311 15.65133,0 45.23876,-39.664311 17.36655,-39.664311 z M 91.533326,71.12404 C 99.894992,71.660044 109.00706,39.28539 93.35574,41.322206 77.704417,43.359023 83.17166,70.588037 91.533326,71.12404 Z m -38.1635,20.046557 c 5.896046,-2.572819 0.750406,-28.086619 -9.326473,-21.118564 -10.07688,6.968054 3.430427,23.798586 9.326473,21.118564 z M 70.093157,77.877694 c 7.075256,-1.393611 7.396859,-30.337838 -5.14564,-25.192199 -12.542498,5.145641 -1.929615,26.58581 5.14564,25.192199 z M 106.86304,142.627 c 1.28642,9.54088 -6.968048,14.25771 -15.115312,8.14727 C 66.019525,131.15651 134.41366,121.40123 129.91123,94.601025 126.1592,72.410451 57.872261,79.164103 50.153801,114.00438 c -5.252841,23.58418 21.65457,56.17324 49.741191,56.17324 13.828908,0 29.801838,-12.43529 32.696258,-28.30102 2.35842,-12.1137 -26.69301,-7.28966 -25.72821,0.7504 z"
     id="path8"
     style="stroke-width:1.072" />
  <g
     id="g20"
     transform="matrix(1.0720084,0,0,1.0720084,-15.881918,-8.2045819)">
    <path
       class="st4"
       d="m 180.6,55 c 0,-5.1 3.1,-8.2 7.2,-8.2 2.2,0 3.6,1 4.5,1.9 l -1.1,1.3 c -0.8,-0.8 -1.8,-1.5 -3.4,-1.5 -3.2,0 -5.2,2.4 -5.2,6.4 0,4 1.9,6.4 5.2,6.4 1.1,0 2.2,-0.3 2.8,-0.9 v -4.1 h -3.3 v -1.7 h 5.2 v 6.6 c -1,1.1 -2.7,1.8 -4.9,1.8 -4.1,0.2 -7,-2.8 -7,-8 z m 14.5,2.1 c 0,-3.8 2.6,-6.1 5.2,-6.1 3,0 4.7,2.1 4.7,5.5 0,0.4 0,0.8 -0.1,1.1 H 197 c 0.1,2.5 1.7,4.1 3.9,4.1 1.1,0 2,-0.4 2.9,-0.9 l 0.7,1.3 c -1,0.7 -2.3,1.2 -3.9,1.2 -3,-0.1 -5.5,-2.4 -5.5,-6.2 z m 8.2,-1 c 0,-2.3 -1.1,-3.6 -2.9,-3.6 -1.6,0 -3.1,1.3 -3.3,3.6 z m 4.7,3.2 v -6.5 h -1.7 v -1.5 l 1.8,-0.1 0.2,-3.3 h 1.6 v 3.3 h 3.2 v 1.6 h -3.2 v 6.5 c 0,1.4 0.5,2.3 1.8,2.3 0.4,0 0.9,-0.2 1.3,-0.3 l 0.4,1.5 c -0.7,0.2 -1.4,0.4 -2.2,0.4 -2.4,0 -3.2,-1.6 -3.2,-3.9 z m 12.2,-11.7 c 0,-0.8 0.6,-1.3 1.4,-1.3 0.8,0 1.4,0.5 1.4,1.3 0,0.7 -0.6,1.3 -1.4,1.3 -0.8,-0.1 -1.4,-0.6 -1.4,-1.3 z m 0.3,3.6 h 2 v 11.7 h -2 z m 5.9,8.1 v -6.5 h -1.7 v -1.5 l 1.8,-0.1 0.2,-3.3 h 1.6 v 3.3 h 3.2 v 1.6 h -3.2 v 6.5 c 0,1.4 0.5,2.3 1.8,2.3 0.4,0 1,-0.2 1.3,-0.3 l 0.4,1.5 c -0.7,0.2 -1.4,0.4 -2.2,0.4 -2.3,0 -3.2,-1.6 -3.2,-3.9 z m 11.7,-2.2 c 0,-3.9 2.5,-6.1 5.4,-6.1 2.9,0 5.4,2.2 5.4,6.1 0,3.9 -2.5,6.1 -5.4,6.1 -2.8,0 -5.4,-2.2 -5.4,-6.1 z m 8.8,0 c 0,-2.7 -1.4,-4.5 -3.4,-4.5 -2,0 -3.4,1.8 -3.4,4.5 0,2.7 1.4,4.5 3.4,4.5 2,0 3.4,-1.8 3.4,-4.5 z m 4.7,-5.9 h 1.6 l 0.2,1.7 h 0.1 c 1.1,-1.1 2.3,-2 3.9,-2 2.5,0 3.6,1.6 3.6,4.6 v 7.4 h -2 v -7.1 c 0,-2.2 -0.7,-3.1 -2.2,-3.1 -1.2,0 -2,0.6 -3.2,1.8 v 8.4 h -2 z"
       id="path10" />
    <g
       id="g18">
      <path
         d="m 277.3,84.2 c -5.8,0.2 -10.3,2.2 -13.6,6 -3.5,4 -5.2,9.6 -5.2,16.7 0,7.1 1.7,12.6 5.2,16.7 3.5,4 8.2,6 14.3,6 6.1,0 10.9,-2 14.3,-6 3.5,-4 5.2,-9.6 5.2,-16.7 0,-7.1 -1.7,-12.7 -5.2,-16.7 -3.5,-4 -8.2,-6 -14.3,-6 z m 0.4,8.2 h 0.3 c 3,0 5.3,1.3 7,3.8 1.6,2.5 2.5,6.1 2.5,10.8 0,4.6 -0.8,8.2 -2.5,10.7 -1.6,2.5 -4,3.8 -7,3.8 -3,0 -5.3,-1.3 -6.9,-3.8 -1.6,-2.5 -2.5,-6.1 -2.5,-10.7 0,-4.6 0.8,-8.2 2.5,-10.8 1.6,-2.4 3.8,-3.7 6.6,-3.8 z m -65.4,33.2 c -5.1,4.2 -12.6,4.1 -15.7,4.1 -6.3,0 -11.3,-2 -15,-6.1 -3.7,-4.1 -5.5,-9.6 -5.5,-16.6 0,-7.1 1.9,-12.6 5.6,-16.7 3.8,-4.1 8.9,-6.1 15.5,-6.1 2.5,0 4.9,0.3 7.2,0.8 2.3,0.5 4.5,1.4 6.6,2.4 l -2.6,7.6 c -1.2,-0.6 -2.5,-1.2 -3.7,-1.7 -2.1,-0.7 -4.2,-1 -6.3,-1 -3.9,0 -6.9,1.3 -9,3.8 -2.1,2.5 -3.2,6.1 -3.2,10.8 0,4.6 1,8.2 3.1,10.8 2,2.5 5.1,3.8 8.7,3.8 3.6,0 5.9,-0.9 7.1,-1.8 v -7.6 h -7.9 v -7.6 h 15.3 M 219,85 h 6.2 l 19.5,26.4 V 85 h 8.4 v 43.9 h -6.2 l -19.5,-26.4 v 26.4 H 219 V 85 m 85,0 h 12.4 l 8.7,27.4 8.7,-27.4 h 10.5 l 4.8,43.9 h -9.3 l -2.9,-27.5 -8.7,27.6 H 322 l -8.8,-28.5 -2.8,28.4 h -9.3 L 305.9,85 m 49.8,0 h 26.5 v 8.6 h -16.7 v 9 h 12.8 v 7.7 h -12.8 v 10 h 17.2 v 8.6 h -27 V 85"
         id="path12" />
      <g
         id="g16">
        <path
           d="m 182.6,142.5 h 12.3 v 1.1 h -11 v 8.2 h 10.2 v 1.1 h -10.2 v 9.1 h 11 v 1.1 h -12.3 z m 25.9,9.8 -6.6,-9.8 h 1.5 l 5.8,8.8 6.1,-8.8 h 1.4 l -6.9,9.7 7.5,10.7 h -1.5 l -6.8,-9.7 -6.6,9.7 H 201 Z m 21.5,-8.7 h -7.2 v -1.1 h 15.7 v 1.1 h -7.2 v 19.3 H 230 Z m 15.5,-1.1 h 12.3 v 1.1 h -11 v 8.2 H 257 v 1.1 h -10.2 v 9.1 h 11 v 1.1 h -12.3 z m 19.5,0 h 1.5 l 13.2,18.8 v -18.8 h 1.2 v 20.4 h -1.5 L 266.2,144 v 18.9 H 265 Z m 23.5,19.2 0.4,-1 c 2.1,0.9 4.4,1.4 6.4,1.4 3.6,0 5.8,-1.7 5.8,-4.3 0,-6.1 -12.3,-3.2 -12.3,-10.2 0,-3.3 2.8,-5.4 7.2,-5.4 1.9,0 3.8,0.4 5.4,1.1 l -0.4,1 c -1.6,-0.7 -3.4,-1.1 -5.2,-1.1 -3.7,0 -5.8,1.5 -5.8,4.1 0,6.1 12.3,3.1 12.3,10.1 0,3.4 -2.8,5.6 -7.2,5.6 -2.1,0.2 -4.5,-0.3 -6.6,-1.3 z m 21.2,-19.2 h 1.2 v 20.4 h -1.2 z m 9.3,10.4 c 0,-6.2 3.8,-10.5 9.5,-10.5 5.6,0 9.3,4.1 9.3,10.3 0,6.3 -3.8,10.5 -9.5,10.5 -5.6,0 -9.3,-4.2 -9.3,-10.3 z m 17.5,0 c 0,-5.6 -3.3,-9.4 -8.2,-9.4 -4.8,0 -8,3.7 -8,9.2 0,5.6 3.2,9.4 8.2,9.4 4.8,0 8,-3.7 8,-9.2 z m 9,-10.4 h 1.5 l 13.2,18.8 v -18.8 h 1.2 v 20.4 H 360 L 346.7,144 v 18.9 h -1.2 z m 23.4,19.2 0.4,-1 c 2.1,0.9 4.4,1.4 6.4,1.4 3.6,0 5.8,-1.7 5.8,-4.3 0,-6.1 -12.3,-3.2 -12.3,-10.2 0,-3.3 2.8,-5.4 7.2,-5.4 1.9,0 3.8,0.4 5.4,1.1 l -0.4,1 c -1.6,-0.7 -3.4,-1.1 -5.2,-1.1 -3.7,0 -5.8,1.5 -5.8,4.1 0,6.1 12.3,3.1 12.3,10.1 0,3.4 -2.8,5.6 -7.2,5.6 -2.1,0.2 -4.4,-0.3 -6.6,-1.3 z"
           id="path14" />
      </g>
    </g>
  </g>
</svg>
